<?xml version="1.0" encoding="UTF-8"?>
<svg version="1.1" xmlns="http://www.w3.org/2000/svg" width="545" height="433">
<path d="M0 0 C179.85 0 359.7 0 545 0 C545 142.89 545 285.78 545 433 C365.15 433 185.3 433 0 433 C0 290.11 0 147.22 0 0 Z " fill="#F3F3F5" transform="translate(0,0)"/>
<path d="M0 0 C17.82 0 35.64 0 54 0 C54 0.99 54 1.98 54 3 C52.98679688 3.13277344 51.97359375 3.26554687 50.9296875 3.40234375 C49.57811796 3.58067584 48.22655586 3.75906425 46.875 3.9375 C46.20984375 4.02451172 45.5446875 4.11152344 44.859375 4.20117188 C40.89169812 4.72630558 36.94373002 5.31814014 33 6 C33.5576001 6.71579224 33.5576001 6.71579224 34.12646484 7.44604492 C46.52809779 23.36943588 46.52809779 23.36943588 52.375 31 C55.8222205 35.48979451 59.3219854 39.9303455 62.87109375 44.33984375 C65.87191326 48.08949161 68.8331904 51.86982048 71.79272461 55.65209961 C72.68263217 56.78782138 73.58197084 57.91619924 74.48925781 59.03808594 C76 61 76 61 77.65917969 63.53222656 C83.05225393 71.29133128 88.15566974 73.04386506 97.25 74.75 C99.1925208 75.16267961 101.13503828 75.57537593 103.07731628 75.98919678 C105.07261987 76.40755281 107.07092201 76.80727132 109.07080078 77.203125 C112.80308513 77.94836581 116.50839178 78.79098606 120.21484375 79.65625 C132.50308941 82.49180125 144.64569153 84.60236776 157.18969727 85.88989258 C178.37680599 88.11290277 201.42023002 91.15145011 221 100 C219.66147144 102.67705711 218.01864406 102.87638239 215.29296875 103.80126953 C214.63941406 104.01122559 213.98585938 104.22118164 213.3125 104.4375 C212.631875 104.65776855 211.95125 104.87803711 211.25 105.10498047 C198.95783218 108.9847672 186.55920794 110.65705092 173.8125 112.25 C167.86088717 113.00178267 161.94243791 113.90919685 156.02197266 114.87280273 C151.88110352 115.54621147 147.738854 116.1898803 143.5859375 116.78515625 C142.68447998 116.91535156 141.78302246 117.04554688 140.85424805 117.1796875 C139.12717664 117.42760913 137.39950057 117.67136885 135.67114258 117.91015625 C131.2329546 118.55166828 127.24925712 119.51965232 123 121 C121.17330317 121.33069512 119.33905054 121.62187226 117.5 121.875 C111.669491 122.79029622 106.15619716 124.29346306 100.51953125 126.02734375 C97 127 97 127 93.57421875 127.50390625 C86.13736309 128.61375427 82.3949225 130.66838509 77.80322266 136.69604492 C76.9717634 137.8348406 76.14937312 138.98029905 75.33496094 140.13134766 C73.38634061 142.85898847 71.33151511 145.50152527 69.28491211 148.15600586 C67.61085889 150.33087158 65.95144494 152.51636643 64.29296875 154.703125 C61.23940096 158.70997988 58.1037759 162.64445469 54.9375 166.5625 C50.15538493 172.48574747 45.5457059 178.52303751 41.00756836 184.63500977 C38.40148705 188.1447366 35.75692662 191.60585921 33 195 C40.31074682 196.66594452 47.52165033 197.51172287 55 198 C55 198.99 55 199.98 55 201 C36.85 201 18.7 201 0 201 C0 199.35 0 197.7 0 196 C0.99 196 1.98 196 3 196 C3.33 171.58 3.66 147.16 4 122 C-20.08013813 120.28780272 -20.08013813 120.28780272 -28.5625 128.4375 C-30.08962582 130.59179269 -31.57163926 132.77899215 -33 135 C-34.50862079 136.73758516 -36.04931007 138.44799668 -37.625 140.125 C-39.89212546 142.64855078 -42.15627479 145.17470461 -44.41796875 147.703125 C-45.60326172 149.02570313 -45.60326172 149.02570313 -46.8125 150.375 C-47.52019531 151.16648437 -48.22789062 151.95796875 -48.95703125 152.7734375 C-49.96830078 153.87558594 -49.96830078 153.87558594 -51 155 C-51.54527344 155.75023437 -52.09054688 156.50046875 -52.65234375 157.2734375 C-56.4015672 160.03076989 -60.23368289 159.42344792 -64.75 159.25 C-65.63816406 159.23195313 -66.52632812 159.21390625 -67.44140625 159.1953125 C-69.62870848 159.14827374 -71.81379816 159.08257009 -74 159 C-73.01 158.67 -72.02 158.34 -71 158 C-71.66 157.01 -72.32 156.02 -73 155 C-73.17112002 152.52943177 -73.23253124 150.17496079 -73.1953125 147.70703125 C-73.1924826 147.00100266 -73.18965271 146.29497406 -73.18673706 145.56755066 C-73.17555464 143.31569367 -73.1504542 141.06423648 -73.125 138.8125 C-73.11496767 137.28451096 -73.10584226 135.75651567 -73.09765625 134.22851562 C-73.07562172 130.48552337 -73.04110567 126.74282944 -73 123 C-71.02 123 -69.04 123 -67 123 C-67 120.36 -67 117.72 -67 115 C-60.73 115 -54.46 115 -48 115 C-48 114.34 -48 113.68 -48 113 C-48.71542969 112.96261719 -49.43085938 112.92523438 -50.16796875 112.88671875 C-58.01737845 112.36884049 -65.38658277 110.95247313 -73 109 C-73 106.69 -73 104.38 -73 102 C-74.0725 102.04125 -75.145 102.0825 -76.25 102.125 C-79.65747485 102.0114175 -81.20739631 101.78726636 -84 100 C-80.32589215 98.82428549 -76.83070817 98.92633254 -73 99 C-73 96.69 -73 94.38 -73 92 C-65.08 90.35 -57.16 88.7 -49 87 C-54.17527585 86.71111787 -54.17527585 86.71111787 -59.35107422 86.43188477 C-64.77777778 86.11111111 -64.77777778 86.11111111 -67 85 C-67 82.69 -67 80.38 -67 78 C-68.98 78 -70.96 78 -73 78 C-73 70.74 -73 63.48 -73 56 C-74.98 56 -76.96 56 -79 56 C-79 55.67 -79 55.34 -79 55 C-77.02 55 -75.04 55 -73 55 C-73.03480469 54.39671875 -73.06960937 53.7934375 -73.10546875 53.171875 C-73.13253906 52.37265625 -73.15960938 51.5734375 -73.1875 50.75 C-73.23970703 49.56664062 -73.23970703 49.56664062 -73.29296875 48.359375 C-72.9101008 45.27601178 -72.30801069 44.09987346 -70 42 C-64.70941534 40.59991553 -59.26130737 40.27102344 -54 42 C-49.2161301 45.16639047 -45.74693107 49.78875286 -42.296875 54.30419922 C-40.27359755 56.94984779 -38.04644468 59.39846032 -35.796875 61.8515625 C-34 64 -34 64 -31.828125 67.3359375 C-28.82981525 71.72144487 -28.82981525 71.72144487 -22 77 C-9.13 77.495 -9.13 77.495 4 78 C4 57.87 4 37.74 4 17 C3.34 17 2.68 17 2 17 C2.33 13.04 2.66 9.08 3 5 C2.01 5 1.02 5 0 5 C0 3.35 0 1.7 0 0 Z " fill="#010101" transform="translate(201,113)"/>
<path d="M0 0 C1.98 0 3.96 0 6 0 C6 1.32 6 2.64 6 4 C5.01 4 4.02 4 3 4 C3 5.65 3 7.3 3 9 C2.67 9 2.34 9 2 9 C2 6.69 2 4.38 2 2 C1.34 2 0.68 2 0 2 C0 1.34 0 0.68 0 0 Z " fill="#BABABC" transform="translate(198,305)"/>
</svg>
